{
  "asset": {
    "generator": "glTF-Transform v4.4.2",
    "version": "2.0",
    "extras": {
      "author": "SMK – National Gallery of Denmark (https://sketchfab.com/smkmuseum)",
      "license": "CC0-1.0 (http://creativecommons.org/publicdomain/zero/1.0/)",
      "source": "https://sketchfab.com/3d-models/venus-de-milo-aphrodite-of-milos-53082b5d6cef4c34a9701a2a24f58075",
      "title": "Venus de Milo (Aphrodite of Milos)"
    }
  },
  "accessors": [
    {
      "type": "SCALAR",
      "componentType": 5123,
      "count": 112866,
      "bufferView": 0,
      "byteOffset": 0
    },
    {
      "type": "SCALAR",
      "componentType": 5123,
      "count": 96318,
      "bufferView": 0,
      "byteOffset": 225732
    },
    {
      "type": "SCALAR",
      "componentType": 5123,
      "count": 94437,
      "bufferView": 0,
      "byteOffset": 418368
    },
    {
      "type": "VEC3",
      "componentType": 5126,
      "count": 32737,
      "bufferView": 1,
      "byteOffset": 0
    },
    {
      "type": "VEC3",
      "componentType": 5126,
      "count": 32737,
      "max": [
        699.767822265625,
        638.9241333007812,
        2117.29541015625
      ],
      "min": [
        0,
        0.39752197265625,
        0.03187304735183716
      ],
      "bufferView": 1,
      "byteOffset": 12
    },
    {
      "type": "VEC3",
      "componentType": 5126,
      "count": 28619,
      "bufferView": 2,
      "byteOffset": 0
    },
    {
      "type": "VEC3",
      "componentType": 5126,
      "count": 28619,
      "max": [
        699.767822265625,
        638.9241333007812,
        2119.80126953125
      ],
      "min": [
        19.3170166015625,
        0.46734619140625,
        0.06829601526260376
      ],
      "bufferView": 2,
      "byteOffset": 12
    },
    {
      "type": "VEC3",
      "componentType": 5126,
      "count": 42268,
      "bufferView": 3,
      "byteOffset": 0
    },
    {
      "type": "VEC3",
      "componentType": 5126,
      "count": 42268,
      "max": [
        699.4484252929688,
        638.9241333007812,
        2119.80126953125
      ],
      "min": [
        0,
        0.39752197265625,
        0.03187304735183716
      ],
      "bufferView": 3,
      "byteOffset": 12
    }
  ],
  "bufferViews": [
    {
      "buffer": 0,
      "byteOffset": 0,
      "byteLength": 607244,
      "target": 34963
    },
    {
      "buffer": 0,
      "byteOffset": 607244,
      "byteLength": 785688,
      "byteStride": 24,
      "target": 34962
    },
    {
      "buffer": 0,
      "byteOffset": 1392932,
      "byteLength": 686856,
      "byteStride": 24,
      "target": 34962
    },
    {
      "buffer": 0,
      "byteOffset": 2079788,
      "byteLength": 1014432,
      "byteStride": 24,
      "target": 34962
    }
  ],
  "buffers": [
    {
      "uri": "scene.bin",
      "byteLength": 3094220
    }
  ],
  "materials": [
    {
      "name": "default",
      "doubleSided": true,
      "pbrMetallicRoughness": {
        "roughnessFactor": 0.6,
        "metallicFactor": 0
      }
    }
  ],
  "meshes": [
    {
      "name": "Object_0",
      "primitives": [
        {
          "attributes": {
            "NORMAL": 3,
            "POSITION": 4
          },
          "mode": 4,
          "material": 0,
          "indices": 0
        }
      ]
    },
    {
      "name": "Object_1",
      "primitives": [
        {
          "attributes": {
            "NORMAL": 5,
            "POSITION": 6
          },
          "mode": 4,
          "material": 0,
          "indices": 1
        }
      ]
    },
    {
      "name": "Object_2",
      "primitives": [
        {
          "attributes": {
            "NORMAL": 7,
            "POSITION": 8
          },
          "mode": 4,
          "material": 0,
          "indices": 2
        }
      ]
    }
  ],
  "nodes": [
    {
      "name": "Sketchfab_model",
      "rotation": [
        -0.7071067811865475,
        0,
        0,
        0.7071067811865476
      ],
      "scale": [
        0.0010000000474974513,
        0.0010000000474974513,
        0.0010000000474974513
      ],
      "children": [
        1
      ]
    },
    {
      "name": "Venus_de_Milo_SMK_KAS434_1_10pct.obj.cleaner.gles",
      "translation": [
        -340.3861083984375,
        -358.0598449707031,
        -0.6337927579879761
      ],
      "children": [
        2
      ]
    },
    {
      "name": "Object_2",
      "children": [
        3,
        4,
        5
      ]
    },
    {
      "name": "Object_3",
      "mesh": 0
    },
    {
      "name": "Object_4",
      "mesh": 1
    },
    {
      "name": "Object_5",
      "mesh": 2
    }
  ],
  "scenes": [
    {
      "name": "Sketchfab_Scene",
      "nodes": [
        0
      ]
    }
  ],
  "scene": 0
}